<?xml version="1.0" standalone="no"?>
<!DOCTYPE svg PUBLIC "-//W3C//DTD SVG 20010904//EN"
 "http://www.w3.org/TR/2001/REC-SVG-20010904/DTD/svg10.dtd">
<svg version="1.0" xmlns="http://www.w3.org/2000/svg"
 width="216.000000pt" height="154.000000pt" viewBox="0 0 216.000000 154.000000"
 preserveAspectRatio="xMidYMid meet">

<g transform="translate(0.000000,154.000000) scale(0.100000,-0.100000)"
fill="#000000" stroke="none">
<path d="M690 1420 l0 -60 135 0 135 0 0 60 0 60 -135 0 -135 0 0 -60z"/>
<path d="M1335 1340 l-39 -40 94 -95 94 -95 43 42 43 42 -92 93 c-51 51 -95
93 -98 93 -3 0 -24 -18 -45 -40z"/>
<path d="M690 1225 c0 -13 22 -15 135 -15 113 0 135 2 135 15 0 13 -22 15
-135 15 -113 0 -135 -2 -135 -15z"/>
<path d="M1196 1202 c-8 -14 180 -195 194 -187 8 5 -19 38 -81 101 -93 94
-103 101 -113 86z"/>
<path d="M690 835 c0 -277 2 -325 14 -325 8 0 26 19 40 42 19 33 22 46 15 66
-22 57 37 114 94 93 30 -12 47 -39 47 -75 0 -37 -17 -41 -25 -6 -4 17 -18 38
-31 47 -23 14 -26 14 -44 -2 -19 -17 -19 -20 -4 -36 53 -58 -76 -209 -179
-209 -39 0 -57 15 -57 48 0 33 16 60 67 114 59 60 53 81 -9 33 -88 -66 -143
-175 -119 -233 22 -52 80 -65 167 -35 35 12 69 36 119 85 68 67 70 68 122 68
l53 0 0 325 0 325 -135 0 -135 0 0 -325z"/>
<path d="M1062 1067 l-92 -92 0 -190 0 -190 187 188 188 187 -95 95 -95 95
-93 -93z"/>
<path d="M1067 682 c-88 -88 -97 -101 -97 -135 0 -32 3 -37 23 -37 21 0 52 42
180 241 38 59 -9 29 -106 -69z"/>
<path d="M1117 650 c-48 -71 -87 -132 -87 -135 0 -3 70 -5 155 -5 l155 0 0
135 0 135 -68 0 -69 0 -86 -130z"/>
<path d="M1390 645 c0 -113 2 -135 15 -135 13 0 15 22 15 135 0 113 -2 135
-15 135 -13 0 -15 -22 -15 -135z"/>
<path d="M1540 645 l0 -135 60 0 60 0 0 135 0 135 -60 0 -60 0 0 -135z"/>
<path d="M40 150 l0 -100 60 0 c53 0 60 2 60 20 0 16 -7 20 -35 20 l-35 0 0
80 c0 79 0 80 -25 80 l-25 0 0 -100z"/>
<path d="M810 230 c0 -13 7 -20 20 -20 18 0 20 -7 20 -80 l0 -80 30 0 30 0 0
80 c0 79 0 80 25 80 18 0 25 5 25 20 0 18 -7 20 -75 20 -68 0 -75 -2 -75 -20z"/>
<path d="M1322 225 c-6 -14 -16 -25 -22 -25 -9 0 -7 -43 6 -107 5 -27 38 -46
64 -38 24 7 26 30 5 39 -9 3 -15 18 -15 36 0 18 6 33 15 36 8 4 15 12 15 20 0
8 -7 14 -15 14 -9 0 -15 9 -15 25 0 14 -6 25 -13 25 -8 0 -19 -11 -25 -25z"/>
<path d="M1480 150 l0 -100 30 0 c28 0 30 2 30 40 0 39 1 40 35 40 34 0 35 -1
35 -40 0 -38 2 -40 30 -40 l30 0 0 100 0 100 -30 0 c-28 0 -30 -2 -30 -40 0
-39 -1 -40 -35 -40 -34 0 -35 1 -35 40 0 38 -2 40 -30 40 l-30 0 0 -100z"/>
<path d="M220 188 c-61 -32 -47 -115 23 -132 50 -13 91 15 95 66 5 57 -62 95
-118 66z m65 -63 c0 -23 -5 -30 -19 -30 -28 0 -43 29 -26 50 21 25 45 14 45
-20z"/>
<path d="M405 188 c-28 -16 -35 -28 -35 -64 0 -51 43 -78 98 -60 12 4 22 3 22
-1 0 -15 -23 -33 -42 -33 -10 0 -18 -7 -18 -15 0 -11 11 -15 39 -15 57 0 71
24 71 122 0 77 0 78 -25 78 -16 0 -25 -6 -25 -15 0 -8 -3 -15 -6 -15 -3 0 -12
7 -20 15 -18 18 -32 18 -59 3z m69 -43 c27 -28 -10 -69 -40 -44 -17 14 -18 31
-2 47 16 16 23 15 42 -3z"/>
<path d="M613 190 c-44 -18 -55 -72 -24 -111 24 -30 89 -33 120 -5 26 24 28
77 3 99 -23 21 -70 29 -99 17z m62 -65 c0 -23 -5 -30 -19 -30 -28 0 -43 29
-26 50 21 25 45 14 45 -20z"/>
<path d="M1001 187 c-51 -26 -47 -107 6 -128 34 -12 96 -3 90 14 -2 7 -18 14
-36 17 -42 7 -40 24 4 28 29 3 35 7 35 27 0 25 -33 55 -60 55 -8 0 -26 -6 -39
-13z m57 -35 c2 -7 -7 -12 -23 -12 -24 0 -26 2 -15 15 14 17 31 16 38 -3z"/>
<path d="M1140 166 l21 -35 -21 -40 -20 -41 24 0 c16 0 30 8 37 22 l12 22 15
-22 c8 -12 25 -22 38 -22 l24 0 -20 41 c-20 37 -20 42 -6 64 9 14 16 29 16 35
0 18 -38 11 -53 -11 l-15 -21 -7 21 c-5 15 -15 21 -36 21 l-31 0 22 -34z"/>
<path d="M1740 187 c-53 -27 -49 -106 7 -128 34 -13 96 -3 90 14 -2 7 -18 14
-36 17 -42 7 -40 24 4 28 29 3 35 7 35 27 0 25 -33 55 -60 55 -8 0 -26 -6 -40
-13z m58 -35 c2 -7 -7 -12 -23 -12 -24 0 -26 2 -15 15 14 17 31 16 38 -3z"/>
<path d="M1947 182 c-11 -10 -17 -12 -17 -4 0 7 -13 12 -30 12 l-30 0 0 -70 0
-70 30 0 c29 0 30 2 30 45 0 39 3 47 25 55 14 5 25 16 25 24 0 23 -15 27 -33
8z"/>
<path d="M2026 179 c-36 -28 -33 -83 6 -112 33 -25 98 -17 98 12 0 14 -6 17
-25 13 -13 -2 -32 -1 -42 2 -15 6 -15 8 -3 16 8 6 30 10 48 10 39 0 42 20 7
55 -30 31 -54 31 -89 4z m71 -25 c2 -6 -8 -14 -22 -16 -24 -5 -34 9 -18 26 10
10 36 3 40 -10z"/>
</g>
</svg>
